<?xml version="1.0" standalone="no"?>
<!DOCTYPE svg PUBLIC "-//W3C//DTD SVG 20010904//EN"
 "http://www.w3.org/TR/2001/REC-SVG-20010904/DTD/svg10.dtd">
<svg version="1.0" xmlns="http://www.w3.org/2000/svg"
 width="222.000000pt" height="127.000000pt" viewBox="0 0 222.000000 127.000000"
 preserveAspectRatio="xMidYMid meet">

<g transform="translate(0.000000,127.000000) scale(0.100000,-0.100000)"
fill="#000000" stroke="none">
<path d="M1275 1139 c-203 -4 -382 -11 -397 -15 -38 -12 -35 -29 5 -27 17 1
261 7 541 13 281 6 512 12 514 15 2 2 1 8 -3 14 -7 12 -50 12 -660 0z"/>
<path d="M885 1009 c-20 -27 -44 -53 -52 -57 -7 -5 -89 -83 -181 -174 l-167
-166 -69 -11 c-37 -7 -129 -11 -205 -10 -109 1 -136 -2 -136 -12 0 -11 35 -14
181 -14 l180 0 -43 -55 c-24 -30 -58 -73 -76 -96 -98 -125 -220 -311 -212
-324 10 -16 36 -12 106 16 124 49 283 104 333 114 28 5 74 15 101 20 115 24
292 41 508 50 126 5 232 12 235 15 3 3 -1 12 -9 20 -11 10 -24 12 -59 5 -25
-5 -93 -9 -152 -10 -191 0 -375 -21 -632 -70 -53 -10 -146 -41 -288 -96 -48
-19 -90 -34 -94 -34 -3 0 10 23 30 50 20 28 36 54 36 58 0 5 8 17 18 28 10 10
37 47 60 81 23 34 47 65 53 68 6 4 23 24 37 44 15 21 47 59 70 86 47 54 25 46
362 116 107 22 235 47 284 54 94 15 106 19 89 36 -7 7 -31 7 -79 -1 -118 -20
-467 -90 -507 -102 -20 -6 -40 -8 -43 -5 -6 5 274 287 285 287 12 0 90 97 91
112 0 33 -17 26 -55 -23z"/>
<path d="M2034 746 c-10 -7 -59 -35 -109 -61 -210 -112 -316 -175 -371 -222
-36 -30 -57 -71 -50 -96 7 -29 65 -71 134 -97 112 -43 490 -89 480 -59 -3 10
-39 17 -124 26 -230 23 -374 59 -434 110 -28 23 -29 26 -16 51 8 15 24 35 36
45 23 20 146 99 170 110 8 4 29 16 46 26 18 11 86 48 153 82 110 57 136 78
113 93 -5 3 -17 -1 -28 -8z"/>
</g>
</svg>
